<mxfile host="65bd71144e">
    <diagram name="Page-1" id="YGu5XpwTbaYucJJaIHfA">
        <mxGraphModel dx="17" dy="450" grid="1" gridSize="10" guides="1" tooltips="1" connect="1" arrows="1" fold="1" page="0" pageScale="1" pageWidth="850" pageHeight="1100" background="none" math="0" shadow="0">
            <root>
                <mxCell id="0"/>
                <mxCell id="1" parent="0"/>
                <mxCell id="PP7ZFoLYRigoSh6CBem2-1" value="Start" style="ellipse;whiteSpace=wrap;html=1;aspect=fixed;" parent="1" vertex="1">
                    <mxGeometry x="430" y="140" width="80" height="80" as="geometry"/>
                </mxCell>
                <mxCell id="7XckkaWi-MHPMV-D5ZwS-26" style="edgeStyle=orthogonalEdgeStyle;rounded=0;orthogonalLoop=1;jettySize=auto;html=1;entryX=0;entryY=0.5;entryDx=0;entryDy=0;" parent="1" source="7XckkaWi-MHPMV-D5ZwS-22" edge="1">
                    <mxGeometry relative="1" as="geometry">
                        <Array as="points">
                            <mxPoint x="280" y="1400"/>
                            <mxPoint x="280" y="630"/>
                        </Array>
                        <mxPoint x="360" y="630" as="targetPoint"/>
                    </mxGeometry>
                </mxCell>
            </root>
        </mxGraphModel>
    </diagram>
</mxfile>